<svg xmlns="http://www.w3.org/2000/svg" xmlns:xlink="http://www.w3.org/1999/xlink" width="500" zoomAndPan="magnify" viewBox="0 0 375 374.999991" height="500" preserveAspectRatio="xMidYMid meet" version="1.0"><defs><clipPath id="8e4eb97cb6"><path d="M 96 229 L 278 229 L 278 303 L 96 303 Z M 96 229 " clip-rule="nonzero"/></clipPath><clipPath id="614954e63d"><path d="M 185.382812 157.421875 L 296.21875 268.261719 L 189.625 374.855469 L 78.785156 264.019531 Z M 185.382812 157.421875 " clip-rule="nonzero"/></clipPath><clipPath id="723046d633"><path d="M 185.382812 157.421875 L 296.21875 268.261719 L 189.625 374.855469 L 78.785156 264.019531 Z M 185.382812 157.421875 " clip-rule="nonzero"/></clipPath><clipPath id="d9d03b7c0a"><path d="M 185.382812 157.421875 L 296.21875 268.261719 L 189.625 374.855469 L 78.785156 264.019531 Z M 185.382812 157.421875 " clip-rule="nonzero"/></clipPath><clipPath id="b1223b2c09"><path d="M 177.234375 290.976562 C 171.039062 284.222656 167.648438 275.570312 167.648438 266.386719 C 167.648438 256.921875 171.269531 248.285156 177.199219 241.792969 C 174.980469 241.167969 172.683594 240.855469 170.351562 240.855469 L 133.074219 240.851562 C 126.285156 240.851562 119.878906 243.515625 115.042969 248.351562 C 110.207031 253.1875 107.542969 259.59375 107.542969 266.382812 C 107.542969 280.460938 118.996094 291.917969 133.078125 291.917969 L 170.355469 291.917969 C 172.710938 291.917969 175.019531 291.597656 177.234375 290.976562 Z M 179.28125 239.691406 C 180.894531 238.1875 182.644531 236.828125 184.511719 235.632812 C 180.085938 233.582031 175.238281 232.507812 170.351562 232.507812 L 133.074219 232.507812 C 114.394531 232.503906 99.195312 247.703125 99.199219 266.382812 C 99.199219 275.394531 102.734375 283.890625 109.152344 290.308594 C 115.570312 296.726562 124.066406 300.261719 133.078125 300.261719 L 170.355469 300.265625 C 176.070312 300.265625 181.578125 298.84375 186.480469 296.164062 C 186.570312 296.101562 186.664062 296.046875 186.761719 296.007812 C 189.480469 294.488281 192.011719 292.582031 194.277344 290.3125 C 200.695312 283.894531 204.230469 275.398438 204.230469 266.386719 C 204.230469 257.484375 200.808594 249.117188 194.542969 242.730469 C 192.671875 243.496094 190.90625 244.476562 189.285156 245.640625 C 195.488281 251.488281 198.507812 258.289062 198.507812 266.386719 C 198.507812 273.878906 195.574219 280.941406 190.238281 286.273438 C 184.90625 291.605469 177.84375 294.542969 170.355469 294.542969 L 133.078125 294.539062 C 125.316406 294.539062 118.273438 291.382812 113.175781 286.285156 C 108.078125 281.183594 104.917969 274.144531 104.917969 266.382812 C 104.917969 258.890625 107.855469 251.828125 113.1875 246.496094 C 118.519531 241.164062 125.582031 238.226562 133.074219 238.226562 L 170.351562 238.230469 C 173.40625 238.230469 176.40625 238.722656 179.28125 239.691406 Z M 187.214844 247.296875 C 181.945312 251.976562 178.617188 258.800781 178.617188 266.386719 C 178.617188 273.714844 181.753906 280.617188 187.253906 285.484375 C 187.640625 285.144531 188.015625 284.789062 188.382812 284.417969 C 193.222656 279.582031 195.886719 273.179688 195.886719 266.386719 C 195.886719 258.941406 193.046875 252.6875 187.214844 247.296875 Z M 185.179688 287.148438 C 184.859375 286.855469 184.546875 286.554688 184.242188 286.25 C 178.96875 280.980469 175.996094 273.886719 175.996094 266.386719 C 175.996094 250.859375 188.625 238.230469 204.148438 238.230469 L 241.425781 238.234375 C 256.953125 238.234375 269.582031 250.867188 269.582031 266.390625 C 269.582031 273.882812 266.648438 280.945312 261.316406 286.277344 C 255.980469 291.609375 248.917969 294.546875 241.429688 294.546875 L 204.152344 294.542969 C 201.097656 294.542969 198.09375 294.054688 195.21875 293.082031 C 193.605469 294.585938 191.859375 295.949219 189.992188 297.144531 C 194.417969 299.191406 199.265625 300.265625 204.152344 300.265625 L 241.429688 300.269531 C 260.109375 300.269531 275.304688 285.070312 275.304688 266.390625 C 275.304688 247.710938 260.105469 232.511719 241.425781 232.511719 L 204.148438 232.507812 C 198.332031 232.507812 192.855469 233.984375 188.066406 236.574219 C 187.953125 236.667969 187.828125 236.738281 187.691406 236.785156 C 185.144531 238.207031 182.796875 239.949219 180.707031 241.957031 C 180.609375 242.09375 180.488281 242.210938 180.355469 242.300781 C 174.132812 248.445312 170.273438 256.972656 170.273438 266.386719 C 170.273438 275.289062 173.695312 283.65625 179.957031 290.042969 C 181.796875 289.289062 183.546875 288.320312 185.179688 287.148438 Z M 187.234375 234.050781 C 192.292969 231.394531 198.046875 229.886719 204.148438 229.886719 L 241.425781 229.886719 C 251.484375 229.890625 260.605469 233.976562 267.214844 240.582031 L 267.234375 240.605469 C 273.839844 247.214844 277.929688 256.335938 277.929688 266.390625 C 277.933594 286.519531 261.558594 302.894531 241.429688 302.890625 L 204.152344 302.890625 C 198.28125 302.890625 192.460938 301.449219 187.269531 298.722656 C 182.210938 301.382812 176.457031 302.886719 170.355469 302.886719 L 133.078125 302.886719 C 123.367188 302.886719 114.210938 299.078125 107.296875 292.164062 C 100.382812 285.25 96.574219 276.09375 96.574219 266.382812 C 96.574219 246.253906 112.945312 229.882812 133.074219 229.882812 L 170.351562 229.882812 C 176.222656 229.886719 182.039062 231.324219 187.234375 234.050781 Z M 197.269531 241.796875 C 203.464844 248.550781 206.851562 257.203125 206.855469 266.386719 C 206.855469 275.855469 203.234375 284.488281 197.300781 290.980469 C 199.523438 291.605469 201.820312 291.921875 204.152344 291.921875 L 241.429688 291.921875 C 248.21875 291.921875 254.621094 289.257812 259.460938 284.421875 C 264.296875 279.585938 266.960938 273.183594 266.960938 266.390625 C 266.960938 252.3125 255.503906 240.859375 241.425781 240.855469 L 204.148438 240.855469 C 201.765625 240.855469 199.460938 241.183594 197.269531 241.796875 Z M 197.269531 241.796875 " clip-rule="evenodd"/></clipPath><linearGradient x1="-24.171611" gradientTransform="matrix(0.691016, 0.691016, -0.690946, 0.690946, 187.25505, 146.564666)" y1="43.967578" x2="197.810436" gradientUnits="userSpaceOnUse" y2="128.825487" id="fada64ebf1"><stop stop-opacity="1" stop-color="rgb(95.698547%, 31.399536%, 36.499023%)" offset="0"/><stop stop-opacity="1" stop-color="rgb(95.698547%, 31.399536%, 36.499023%)" offset="0.0625"/><stop stop-opacity="1" stop-color="rgb(95.698547%, 31.399536%, 36.499023%)" offset="0.09375"/><stop stop-opacity="1" stop-color="rgb(95.518494%, 31.515503%, 36.978149%)" offset="0.0976563"/><stop stop-opacity="1" stop-color="rgb(95.33844%, 31.632996%, 37.458801%)" offset="0.101562"/><stop stop-opacity="1" stop-color="rgb(95.133972%, 31.764221%, 38.000488%)" offset="0.105469"/><stop stop-opacity="1" stop-color="rgb(94.93103%, 31.895447%, 38.543701%)" offset="0.109375"/><stop stop-opacity="1" stop-color="rgb(94.726562%, 32.026672%, 39.085388%)" offset="0.113281"/><stop stop-opacity="1" stop-color="rgb(94.523621%, 32.159424%, 39.627075%)" offset="0.117188"/><stop stop-opacity="1" stop-color="rgb(94.319153%, 32.290649%, 40.168762%)" offset="0.121094"/><stop stop-opacity="1" stop-color="rgb(94.116211%, 32.421875%, 40.711975%)" offset="0.125"/><stop stop-opacity="1" stop-color="rgb(93.911743%, 32.553101%, 41.253662%)" offset="0.128906"/><stop stop-opacity="1" stop-color="rgb(93.708801%, 32.685852%, 41.795349%)" offset="0.132812"/><stop stop-opacity="1" stop-color="rgb(93.504333%, 32.817078%, 42.337036%)" offset="0.136719"/><stop stop-opacity="1" stop-color="rgb(93.301392%, 32.949829%, 42.880249%)" offset="0.140625"/><stop stop-opacity="1" stop-color="rgb(93.096924%, 33.081055%, 43.421936%)" offset="0.144531"/><stop stop-opacity="1" stop-color="rgb(92.893982%, 33.21228%, 43.963623%)" offset="0.148438"/><stop stop-opacity="1" stop-color="rgb(92.689514%, 33.343506%, 44.50531%)" offset="0.152344"/><stop stop-opacity="1" stop-color="rgb(92.486572%, 33.476257%, 45.048523%)" offset="0.15625"/><stop stop-opacity="1" stop-color="rgb(92.282104%, 33.607483%, 45.59021%)" offset="0.160156"/><stop stop-opacity="1" stop-color="rgb(92.077637%, 33.738708%, 46.131897%)" offset="0.164062"/><stop stop-opacity="1" stop-color="rgb(91.873169%, 33.869934%, 46.673584%)" offset="0.167969"/><stop stop-opacity="1" stop-color="rgb(91.670227%, 34.002686%, 47.216797%)" offset="0.171875"/><stop stop-opacity="1" stop-color="rgb(91.465759%, 34.133911%, 47.758484%)" offset="0.175781"/><stop stop-opacity="1" stop-color="rgb(91.262817%, 34.265137%, 48.300171%)" offset="0.179688"/><stop stop-opacity="1" stop-color="rgb(91.05835%, 34.396362%, 48.841858%)" offset="0.183594"/><stop stop-opacity="1" stop-color="rgb(90.855408%, 34.529114%, 49.385071%)" offset="0.1875"/><stop stop-opacity="1" stop-color="rgb(90.65094%, 34.660339%, 49.926758%)" offset="0.191406"/><stop stop-opacity="1" stop-color="rgb(90.447998%, 34.793091%, 50.468445%)" offset="0.195313"/><stop stop-opacity="1" stop-color="rgb(90.24353%, 34.924316%, 51.010132%)" offset="0.199219"/><stop stop-opacity="1" stop-color="rgb(90.040588%, 35.055542%, 51.553345%)" offset="0.203125"/><stop stop-opacity="1" stop-color="rgb(89.836121%, 35.186768%, 52.095032%)" offset="0.207031"/><stop stop-opacity="1" stop-color="rgb(89.633179%, 35.319519%, 52.636719%)" offset="0.210938"/><stop stop-opacity="1" stop-color="rgb(89.428711%, 35.450745%, 53.178406%)" offset="0.214844"/><stop stop-opacity="1" stop-color="rgb(89.225769%, 35.58197%, 53.721619%)" offset="0.21875"/><stop stop-opacity="1" stop-color="rgb(89.021301%, 35.713196%, 54.263306%)" offset="0.222656"/><stop stop-opacity="1" stop-color="rgb(88.818359%, 35.845947%, 54.804993%)" offset="0.226563"/><stop stop-opacity="1" stop-color="rgb(88.613892%, 35.977173%, 55.34668%)" offset="0.230469"/><stop stop-opacity="1" stop-color="rgb(88.41095%, 36.109924%, 55.889893%)" offset="0.234375"/><stop stop-opacity="1" stop-color="rgb(88.206482%, 36.24115%, 56.43158%)" offset="0.238281"/><stop stop-opacity="1" stop-color="rgb(88.00354%, 36.372375%, 56.973267%)" offset="0.242188"/><stop stop-opacity="1" stop-color="rgb(87.799072%, 36.503601%, 57.514954%)" offset="0.246094"/><stop stop-opacity="1" stop-color="rgb(87.59613%, 36.636353%, 58.058167%)" offset="0.25"/><stop stop-opacity="1" stop-color="rgb(87.391663%, 36.767578%, 58.599854%)" offset="0.253906"/><stop stop-opacity="1" stop-color="rgb(87.188721%, 36.898804%, 59.141541%)" offset="0.257813"/><stop stop-opacity="1" stop-color="rgb(86.984253%, 37.030029%, 59.683228%)" offset="0.261719"/><stop stop-opacity="1" stop-color="rgb(86.781311%, 37.162781%, 60.22644%)" offset="0.265625"/><stop stop-opacity="1" stop-color="rgb(86.576843%, 37.294006%, 60.768127%)" offset="0.269531"/><stop stop-opacity="1" stop-color="rgb(86.373901%, 37.425232%, 61.309814%)" offset="0.273438"/><stop stop-opacity="1" stop-color="rgb(86.169434%, 37.556458%, 61.851501%)" offset="0.277344"/><stop stop-opacity="1" stop-color="rgb(85.964966%, 37.689209%, 62.394714%)" offset="0.28125"/><stop stop-opacity="1" stop-color="rgb(85.760498%, 37.820435%, 62.936401%)" offset="0.285156"/><stop stop-opacity="1" stop-color="rgb(85.557556%, 37.953186%, 63.478088%)" offset="0.289062"/><stop stop-opacity="1" stop-color="rgb(85.353088%, 38.084412%, 64.019775%)" offset="0.292969"/><stop stop-opacity="1" stop-color="rgb(85.150146%, 38.215637%, 64.562988%)" offset="0.296875"/><stop stop-opacity="1" stop-color="rgb(84.945679%, 38.346863%, 65.104675%)" offset="0.300781"/><stop stop-opacity="1" stop-color="rgb(84.742737%, 38.479614%, 65.646362%)" offset="0.304688"/><stop stop-opacity="1" stop-color="rgb(84.538269%, 38.61084%, 66.188049%)" offset="0.308594"/><stop stop-opacity="1" stop-color="rgb(84.335327%, 38.742065%, 66.731262%)" offset="0.3125"/><stop stop-opacity="1" stop-color="rgb(84.130859%, 38.873291%, 67.272949%)" offset="0.316406"/><stop stop-opacity="1" stop-color="rgb(83.927917%, 39.006042%, 67.814636%)" offset="0.320313"/><stop stop-opacity="1" stop-color="rgb(83.72345%, 39.137268%, 68.356323%)" offset="0.324219"/><stop stop-opacity="1" stop-color="rgb(83.520508%, 39.27002%, 68.899536%)" offset="0.328125"/><stop stop-opacity="1" stop-color="rgb(83.31604%, 39.401245%, 69.441223%)" offset="0.332031"/><stop stop-opacity="1" stop-color="rgb(83.113098%, 39.532471%, 69.98291%)" offset="0.335938"/><stop stop-opacity="1" stop-color="rgb(82.90863%, 39.663696%, 70.524597%)" offset="0.339844"/><stop stop-opacity="1" stop-color="rgb(82.705688%, 39.796448%, 71.06781%)" offset="0.34375"/><stop stop-opacity="1" stop-color="rgb(82.501221%, 39.927673%, 71.609497%)" offset="0.347656"/><stop stop-opacity="1" stop-color="rgb(82.298279%, 40.058899%, 72.151184%)" offset="0.351563"/><stop stop-opacity="1" stop-color="rgb(82.093811%, 40.190125%, 72.692871%)" offset="0.355469"/><stop stop-opacity="1" stop-color="rgb(81.890869%, 40.322876%, 73.236084%)" offset="0.359375"/><stop stop-opacity="1" stop-color="rgb(81.686401%, 40.454102%, 73.777771%)" offset="0.363281"/><stop stop-opacity="1" stop-color="rgb(81.483459%, 40.586853%, 74.319458%)" offset="0.367188"/><stop stop-opacity="1" stop-color="rgb(81.278992%, 40.718079%, 74.861145%)" offset="0.371094"/><stop stop-opacity="1" stop-color="rgb(81.07605%, 40.849304%, 75.404358%)" offset="0.375"/><stop stop-opacity="1" stop-color="rgb(80.871582%, 40.98053%, 75.946045%)" offset="0.378906"/><stop stop-opacity="1" stop-color="rgb(80.66864%, 41.113281%, 76.487732%)" offset="0.382813"/><stop stop-opacity="1" stop-color="rgb(80.464172%, 41.244507%, 77.029419%)" offset="0.386719"/><stop stop-opacity="1" stop-color="rgb(80.26123%, 41.375732%, 77.572632%)" offset="0.390625"/><stop stop-opacity="1" stop-color="rgb(80.056763%, 41.506958%, 78.114319%)" offset="0.394531"/><stop stop-opacity="1" stop-color="rgb(79.852295%, 41.639709%, 78.656006%)" offset="0.398438"/><stop stop-opacity="1" stop-color="rgb(79.647827%, 41.770935%, 79.197693%)" offset="0.402344"/><stop stop-opacity="1" stop-color="rgb(79.444885%, 41.902161%, 79.740906%)" offset="0.40625"/><stop stop-opacity="1" stop-color="rgb(79.240417%, 42.033386%, 80.282593%)" offset="0.410156"/><stop stop-opacity="1" stop-color="rgb(79.037476%, 42.166138%, 80.82428%)" offset="0.414063"/><stop stop-opacity="1" stop-color="rgb(78.833008%, 42.297363%, 81.365967%)" offset="0.417969"/><stop stop-opacity="1" stop-color="rgb(78.630066%, 42.430115%, 81.90918%)" offset="0.421875"/><stop stop-opacity="1" stop-color="rgb(78.425598%, 42.56134%, 82.450867%)" offset="0.425781"/><stop stop-opacity="1" stop-color="rgb(78.222656%, 42.692566%, 82.992554%)" offset="0.429688"/><stop stop-opacity="1" stop-color="rgb(78.018188%, 42.823792%, 83.534241%)" offset="0.433594"/><stop stop-opacity="1" stop-color="rgb(77.815247%, 42.956543%, 84.077454%)" offset="0.4375"/><stop stop-opacity="1" stop-color="rgb(77.610779%, 43.087769%, 84.619141%)" offset="0.441406"/><stop stop-opacity="1" stop-color="rgb(77.407837%, 43.218994%, 85.160828%)" offset="0.445313"/><stop stop-opacity="1" stop-color="rgb(77.203369%, 43.35022%, 85.702515%)" offset="0.449219"/><stop stop-opacity="1" stop-color="rgb(77.000427%, 43.482971%, 86.245728%)" offset="0.453125"/><stop stop-opacity="1" stop-color="rgb(76.795959%, 43.614197%, 86.787415%)" offset="0.457031"/><stop stop-opacity="1" stop-color="rgb(76.593018%, 43.746948%, 87.329102%)" offset="0.460938"/><stop stop-opacity="1" stop-color="rgb(76.38855%, 43.878174%, 87.870789%)" offset="0.464844"/><stop stop-opacity="1" stop-color="rgb(76.185608%, 44.009399%, 88.414001%)" offset="0.46875"/><stop stop-opacity="1" stop-color="rgb(75.98114%, 44.140625%, 88.955688%)" offset="0.472656"/><stop stop-opacity="1" stop-color="rgb(75.778198%, 44.273376%, 89.497375%)" offset="0.476563"/><stop stop-opacity="1" stop-color="rgb(75.57373%, 44.404602%, 90.039062%)" offset="0.480469"/><stop stop-opacity="1" stop-color="rgb(75.370789%, 44.535828%, 90.582275%)" offset="0.484375"/><stop stop-opacity="1" stop-color="rgb(75.166321%, 44.667053%, 91.123962%)" offset="0.488281"/><stop stop-opacity="1" stop-color="rgb(74.963379%, 44.799805%, 91.665649%)" offset="0.492188"/><stop stop-opacity="1" stop-color="rgb(74.758911%, 44.93103%, 92.207336%)" offset="0.496094"/><stop stop-opacity="1" stop-color="rgb(74.555969%, 45.062256%, 92.750549%)" offset="0.5"/><stop stop-opacity="1" stop-color="rgb(73.973083%, 45.332336%, 92.811584%)" offset="0.503906"/><stop stop-opacity="1" stop-color="rgb(73.391724%, 45.603943%, 92.874146%)" offset="0.507813"/><stop stop-opacity="1" stop-color="rgb(72.749329%, 45.895386%, 92.858887%)" offset="0.511719"/><stop stop-opacity="1" stop-color="rgb(72.106934%, 46.188354%, 92.845154%)" offset="0.515625"/><stop stop-opacity="1" stop-color="rgb(71.464539%, 46.481323%, 92.829895%)" offset="0.519531"/><stop stop-opacity="1" stop-color="rgb(70.822144%, 46.774292%, 92.816162%)" offset="0.523438"/><stop stop-opacity="1" stop-color="rgb(70.179749%, 47.065735%, 92.800903%)" offset="0.527344"/><stop stop-opacity="1" stop-color="rgb(69.537354%, 47.358704%, 92.78717%)" offset="0.53125"/><stop stop-opacity="1" stop-color="rgb(68.894958%, 47.651672%, 92.771912%)" offset="0.535156"/><stop stop-opacity="1" stop-color="rgb(68.252563%, 47.944641%, 92.758179%)" offset="0.539063"/><stop stop-opacity="1" stop-color="rgb(67.610168%, 48.236084%, 92.74292%)" offset="0.542969"/><stop stop-opacity="1" stop-color="rgb(66.967773%, 48.529053%, 92.729187%)" offset="0.546875"/><stop stop-opacity="1" stop-color="rgb(66.325378%, 48.822021%, 92.713928%)" offset="0.550781"/><stop stop-opacity="1" stop-color="rgb(65.682983%, 49.11499%, 92.700195%)" offset="0.554688"/><stop stop-opacity="1" stop-color="rgb(65.040588%, 49.406433%, 92.684937%)" offset="0.558594"/><stop stop-opacity="1" stop-color="rgb(64.399719%, 49.699402%, 92.671204%)" offset="0.5625"/><stop stop-opacity="1" stop-color="rgb(63.757324%, 49.992371%, 92.655945%)" offset="0.566406"/><stop stop-opacity="1" stop-color="rgb(63.114929%, 50.285339%, 92.642212%)" offset="0.570313"/><stop stop-opacity="1" stop-color="rgb(62.472534%, 50.576782%, 92.626953%)" offset="0.574219"/><stop stop-opacity="1" stop-color="rgb(61.830139%, 50.869751%, 92.61322%)" offset="0.578125"/><stop stop-opacity="1" stop-color="rgb(61.187744%, 51.16272%, 92.597961%)" offset="0.582031"/><stop stop-opacity="1" stop-color="rgb(60.545349%, 51.455688%, 92.584229%)" offset="0.585938"/><stop stop-opacity="1" stop-color="rgb(59.902954%, 51.747131%, 92.56897%)" offset="0.589844"/><stop stop-opacity="1" stop-color="rgb(59.260559%, 52.0401%, 92.553711%)" offset="0.59375"/><stop stop-opacity="1" stop-color="rgb(58.618164%, 52.333069%, 92.538452%)" offset="0.597656"/><stop stop-opacity="1" stop-color="rgb(57.975769%, 52.626038%, 92.524719%)" offset="0.601563"/><stop stop-opacity="1" stop-color="rgb(57.333374%, 52.91748%, 92.50946%)" offset="0.605469"/><stop stop-opacity="1" stop-color="rgb(56.690979%, 53.210449%, 92.495728%)" offset="0.609375"/><stop stop-opacity="1" stop-color="rgb(56.048584%, 53.503418%, 92.480469%)" offset="0.613281"/><stop stop-opacity="1" stop-color="rgb(55.406189%, 53.796387%, 92.466736%)" offset="0.617188"/><stop stop-opacity="1" stop-color="rgb(54.763794%, 54.08783%, 92.451477%)" offset="0.621094"/><stop stop-opacity="1" stop-color="rgb(54.121399%, 54.380798%, 92.437744%)" offset="0.625"/><stop stop-opacity="1" stop-color="rgb(53.479004%, 54.673767%, 92.422485%)" offset="0.628906"/><stop stop-opacity="1" stop-color="rgb(52.836609%, 54.966736%, 92.408752%)" offset="0.632812"/><stop stop-opacity="1" stop-color="rgb(52.194214%, 55.258179%, 92.393494%)" offset="0.636719"/><stop stop-opacity="1" stop-color="rgb(51.551819%, 55.551147%, 92.379761%)" offset="0.640625"/><stop stop-opacity="1" stop-color="rgb(50.909424%, 55.844116%, 92.364502%)" offset="0.644531"/><stop stop-opacity="1" stop-color="rgb(50.267029%, 56.137085%, 92.350769%)" offset="0.648438"/><stop stop-opacity="1" stop-color="rgb(49.624634%, 56.428528%, 92.33551%)" offset="0.652344"/><stop stop-opacity="1" stop-color="rgb(48.982239%, 56.721497%, 92.321777%)" offset="0.65625"/><stop stop-opacity="1" stop-color="rgb(48.339844%, 57.014465%, 92.306519%)" offset="0.660156"/><stop stop-opacity="1" stop-color="rgb(47.698975%, 57.307434%, 92.292786%)" offset="0.664063"/><stop stop-opacity="1" stop-color="rgb(47.05658%, 57.598877%, 92.277527%)" offset="0.667969"/><stop stop-opacity="1" stop-color="rgb(46.414185%, 57.891846%, 92.263794%)" offset="0.671875"/><stop stop-opacity="1" stop-color="rgb(45.77179%, 58.184814%, 92.248535%)" offset="0.675781"/><stop stop-opacity="1" stop-color="rgb(45.129395%, 58.477783%, 92.234802%)" offset="0.679688"/><stop stop-opacity="1" stop-color="rgb(44.487%, 58.769226%, 92.219543%)" offset="0.683594"/><stop stop-opacity="1" stop-color="rgb(43.844604%, 59.062195%, 92.205811%)" offset="0.6875"/><stop stop-opacity="1" stop-color="rgb(43.202209%, 59.355164%, 92.190552%)" offset="0.691406"/><stop stop-opacity="1" stop-color="rgb(42.559814%, 59.648132%, 92.176819%)" offset="0.695313"/><stop stop-opacity="1" stop-color="rgb(41.917419%, 59.939575%, 92.16156%)" offset="0.699219"/><stop stop-opacity="1" stop-color="rgb(41.275024%, 60.232544%, 92.147827%)" offset="0.703125"/><stop stop-opacity="1" stop-color="rgb(40.632629%, 60.525513%, 92.132568%)" offset="0.707031"/><stop stop-opacity="1" stop-color="rgb(39.990234%, 60.818481%, 92.118835%)" offset="0.710938"/><stop stop-opacity="1" stop-color="rgb(39.347839%, 61.109924%, 92.103577%)" offset="0.714844"/><stop stop-opacity="1" stop-color="rgb(38.705444%, 61.402893%, 92.089844%)" offset="0.71875"/><stop stop-opacity="1" stop-color="rgb(38.063049%, 61.695862%, 92.074585%)" offset="0.722656"/><stop stop-opacity="1" stop-color="rgb(37.420654%, 61.988831%, 92.060852%)" offset="0.726562"/><stop stop-opacity="1" stop-color="rgb(36.778259%, 62.280273%, 92.045593%)" offset="0.730469"/><stop stop-opacity="1" stop-color="rgb(36.135864%, 62.573242%, 92.03186%)" offset="0.734375"/><stop stop-opacity="1" stop-color="rgb(35.493469%, 62.866211%, 92.016602%)" offset="0.738281"/><stop stop-opacity="1" stop-color="rgb(34.851074%, 63.15918%, 92.002869%)" offset="0.742188"/><stop stop-opacity="1" stop-color="rgb(34.208679%, 63.450623%, 91.98761%)" offset="0.746094"/><stop stop-opacity="1" stop-color="rgb(33.566284%, 63.743591%, 91.973877%)" offset="0.75"/><stop stop-opacity="1" stop-color="rgb(32.923889%, 64.03656%, 91.958618%)" offset="0.753906"/><stop stop-opacity="1" stop-color="rgb(32.28302%, 64.329529%, 91.943359%)" offset="0.757813"/><stop stop-opacity="1" stop-color="rgb(31.640625%, 64.620972%, 91.928101%)" offset="0.761719"/><stop stop-opacity="1" stop-color="rgb(30.99823%, 64.91394%, 91.914368%)" offset="0.765625"/><stop stop-opacity="1" stop-color="rgb(30.355835%, 65.206909%, 91.899109%)" offset="0.769531"/><stop stop-opacity="1" stop-color="rgb(29.71344%, 65.499878%, 91.885376%)" offset="0.773438"/><stop stop-opacity="1" stop-color="rgb(29.071045%, 65.791321%, 91.870117%)" offset="0.777344"/><stop stop-opacity="1" stop-color="rgb(28.42865%, 66.08429%, 91.856384%)" offset="0.78125"/><stop stop-opacity="1" stop-color="rgb(27.786255%, 66.377258%, 91.841125%)" offset="0.785156"/><stop stop-opacity="1" stop-color="rgb(27.14386%, 66.670227%, 91.827393%)" offset="0.789063"/><stop stop-opacity="1" stop-color="rgb(26.501465%, 66.96167%, 91.812134%)" offset="0.792969"/><stop stop-opacity="1" stop-color="rgb(25.85907%, 67.254639%, 91.798401%)" offset="0.796875"/><stop stop-opacity="1" stop-color="rgb(25.216675%, 67.547607%, 91.783142%)" offset="0.800781"/><stop stop-opacity="1" stop-color="rgb(24.57428%, 67.840576%, 91.769409%)" offset="0.804688"/><stop stop-opacity="1" stop-color="rgb(23.931885%, 68.132019%, 91.75415%)" offset="0.808594"/><stop stop-opacity="1" stop-color="rgb(23.28949%, 68.424988%, 91.740417%)" offset="0.8125"/><stop stop-opacity="1" stop-color="rgb(22.647095%, 68.717957%, 91.725159%)" offset="0.816406"/><stop stop-opacity="1" stop-color="rgb(22.0047%, 69.010925%, 91.711426%)" offset="0.820312"/><stop stop-opacity="1" stop-color="rgb(21.362305%, 69.302368%, 91.696167%)" offset="0.824219"/><stop stop-opacity="1" stop-color="rgb(20.71991%, 69.595337%, 91.682434%)" offset="0.828125"/><stop stop-opacity="1" stop-color="rgb(20.077515%, 69.888306%, 91.667175%)" offset="0.832031"/><stop stop-opacity="1" stop-color="rgb(19.43512%, 70.181274%, 91.653442%)" offset="0.835938"/><stop stop-opacity="1" stop-color="rgb(18.792725%, 70.472717%, 91.638184%)" offset="0.839844"/><stop stop-opacity="1" stop-color="rgb(18.15033%, 70.765686%, 91.624451%)" offset="0.84375"/><stop stop-opacity="1" stop-color="rgb(17.507935%, 71.058655%, 91.609192%)" offset="0.847656"/><stop stop-opacity="1" stop-color="rgb(16.86554%, 71.351624%, 91.595459%)" offset="0.851563"/><stop stop-opacity="1" stop-color="rgb(16.223145%, 71.643066%, 91.5802%)" offset="0.855469"/><stop stop-opacity="1" stop-color="rgb(15.582275%, 71.936035%, 91.566467%)" offset="0.859375"/><stop stop-opacity="1" stop-color="rgb(14.93988%, 72.229004%, 91.551208%)" offset="0.863281"/><stop stop-opacity="1" stop-color="rgb(14.297485%, 72.521973%, 91.537476%)" offset="0.867188"/><stop stop-opacity="1" stop-color="rgb(13.65509%, 72.813416%, 91.522217%)" offset="0.871094"/><stop stop-opacity="1" stop-color="rgb(13.012695%, 73.106384%, 91.508484%)" offset="0.875"/><stop stop-opacity="1" stop-color="rgb(12.3703%, 73.399353%, 91.493225%)" offset="0.878906"/><stop stop-opacity="1" stop-color="rgb(11.727905%, 73.692322%, 91.479492%)" offset="0.882812"/><stop stop-opacity="1" stop-color="rgb(11.08551%, 73.983765%, 91.464233%)" offset="0.886719"/><stop stop-opacity="1" stop-color="rgb(10.443115%, 74.276733%, 91.4505%)" offset="0.890625"/><stop stop-opacity="1" stop-color="rgb(9.80072%, 74.569702%, 91.435242%)" offset="0.894531"/><stop stop-opacity="1" stop-color="rgb(9.158325%, 74.862671%, 91.421509%)" offset="0.898438"/><stop stop-opacity="1" stop-color="rgb(8.677673%, 75.080872%, 91.409302%)" offset="0.902344"/><stop stop-opacity="1" stop-color="rgb(8.198547%, 75.299072%, 91.398621%)" offset="0.90625"/><stop stop-opacity="1" stop-color="rgb(8.198547%, 75.299072%, 91.398621%)" offset="0.9375"/><stop stop-opacity="1" stop-color="rgb(8.198547%, 75.299072%, 91.398621%)" offset="1"/></linearGradient><clipPath id="b099c8fb86"><path d="M 117 65.089844 L 259.003906 65.089844 L 259.003906 224.839844 L 117 224.839844 Z M 117 65.089844 " clip-rule="nonzero"/></clipPath><clipPath id="87112fbd59"><path d="M 115.753906 65.089844 L 258 65.089844 L 258 224.839844 L 115.753906 224.839844 Z M 115.753906 65.089844 " clip-rule="nonzero"/></clipPath></defs><g clip-path="url(#8e4eb97cb6)"><g clip-path="url(#614954e63d)"><g clip-path="url(#723046d633)"><g clip-path="url(#d9d03b7c0a)"><g clip-path="url(#b1223b2c09)"><path fill="url(#fada64ebf1)" d="M 187.253906 139.203125 L 60.066406 266.386719 L 187.253906 393.574219 L 314.4375 266.386719 Z M 187.253906 139.203125 " fill-rule="nonzero"/></g></g></g></g></g><path fill="#be73ed" d="M 198.484375 136.53125 C 212.957031 116.507812 216.082031 101.875 220.984375 103.277344 C 224.816406 104.371094 222.972656 107.660156 233.097656 109.984375 C 242.820312 112.210938 252.753906 104.203125 254.816406 94.539062 C 257.566406 85.066406 253.109375 73.160156 243.144531 70.222656 C 233.28125 66.640625 221.523438 72.460938 218.015625 82.320312 C 212.929688 93.589844 210.324219 108.476562 193.886719 121.25 L 181.273438 131.058594 L 137.621094 192.910156 C 132.742188 200.90625 129.808594 211.546875 136.136719 221.671875 Z M 245.316406 99.199219 C 236.910156 107.617188 222.035156 102.480469 222.0625 91.246094 C 221.46875 80.90625 233.988281 71.492188 243.292969 77.394531 C 251.128906 81.53125 251.070312 93.4375 245.316406 99.199219 Z M 245.316406 99.199219 " fill-opacity="1" fill-rule="nonzero"/><g clip-path="url(#b099c8fb86)"><path stroke-linecap="butt" transform="matrix(0.36074, 0, 0, 0.362048, 17.74036, -6.642927)" fill="none" stroke-linejoin="miter" d="M 501.036351 395.456702 C 541.15567 340.150622 549.818411 299.73381 563.408086 303.607178 C 574.030772 306.628189 568.919755 315.7128 596.987036 322.132449 C 623.938989 328.282364 651.475677 306.164248 657.193086 279.471457 C 664.816298 253.307344 652.461064 220.421481 624.837748 212.307908 C 597.495972 202.414097 564.902409 218.490192 555.178482 245.722448 C 541.079871 276.849651 533.857311 317.967769 488.291293 353.248862 L 453.326304 380.340858 L 332.318641 551.179032 C 318.793936 573.26478 310.661788 602.654902 328.203839 630.620832 Z M 630.858353 292.343122 C 607.55558 315.594118 566.320933 301.406155 566.396732 270.376056 C 564.750811 241.816713 599.455917 215.814439 625.249228 232.117109 C 646.971052 243.543005 646.808625 276.428868 630.858353 292.343122 Z M 630.858353 292.343122 " stroke="#000000" stroke-width="7.541" stroke-opacity="1" stroke-miterlimit="4"/></g><path fill="#be73ed" d="M 176.1875 137.078125 C 161.761719 117.023438 158.667969 102.382812 153.761719 103.773438 C 149.929688 104.859375 151.761719 108.152344 141.632812 110.453125 C 131.90625 112.660156 121.992188 104.628906 119.949219 94.957031 C 117.222656 85.480469 121.707031 73.585938 131.679688 70.667969 C 141.550781 67.109375 153.292969 72.957031 156.78125 82.824219 C 161.839844 94.105469 164.414062 108.996094 180.820312 121.808594 L 193.410156 131.644531 L 236.929688 193.59375 C 241.792969 201.601562 244.699219 212.246094 238.347656 222.359375 Z M 129.441406 99.640625 C 137.828125 108.078125 152.710938 102.976562 152.710938 91.738281 C 153.332031 81.402344 140.832031 71.960938 131.511719 77.839844 C 123.667969 81.960938 123.699219 93.863281 129.441406 99.640625 Z M 129.441406 99.640625 " fill-opacity="1" fill-rule="nonzero"/><g clip-path="url(#87112fbd59)"><path stroke-linecap="butt" transform="matrix(0.36074, 0, 0, 0.362048, 17.74036, -6.642927)" fill="none" stroke-linejoin="miter" d="M 439.227693 396.967208 C 399.238315 341.574813 390.662201 301.136422 377.061698 304.977422 C 366.439012 307.976854 371.517544 317.072255 343.439434 323.427168 C 316.476653 329.523136 288.994107 307.340284 283.33084 280.625915 C 275.772599 254.451012 288.203632 221.597517 315.848604 213.537891 C 343.212037 203.708816 375.762287 219.860436 385.432072 247.114271 C 399.454884 278.273842 406.590817 319.402749 452.070207 354.791736 L 486.970225 381.959257 L 607.609722 553.067164 C 621.091113 575.18528 629.147462 604.586191 611.540441 632.519754 Z M 309.643916 293.562316 C 332.892547 316.867258 374.148851 302.776399 374.148851 271.735511 C 375.870571 243.186957 341.219607 217.109158 315.382982 233.347092 C 293.639502 244.72983 293.726129 277.604904 309.643916 293.562316 Z M 309.643916 293.562316 " stroke="#000000" stroke-width="7.541" stroke-opacity="1" stroke-miterlimit="4"/></g></svg>